
<svg version="1.1" xmlns="http://www.w3.org/2000/svg" width="30" height="30" viewBox="0 0 1536 1536">
<path fill="#fff" d="M812.16 120.96c-21.441-15.681-47.679-24.96-76.161-24.96-70.719 0-128.001 57.279-128.001 128.001v128.001c0 35.232-28.8 63.999-63.999 63.999h-384c-70.719 0-128.001 57.279-128.001 128.001v447.999c0 70.719 57.279 128.001 128.001 128.001h384c35.199 0 63.999 28.8 63.999 63.999v128.001c0 70.719 57.279 128.001 128.001 128.001 28.479 0 54.72-9.279 76.161-24.96l644.769-533.439c62.751-62.721 62.751-164.481 0-227.199l-644.769-533.445z"></path>
</svg>
