<!-- Generated by IcoMoon.io -->
<svg version="1.1" xmlns="http://www.w3.org/2000/svg" width="30" height="30" viewBox="0 0 1536 1536">
<path fill="#fff" d="M723.84 120.96c21.441-15.681 47.649-24.96 76.161-24.96 70.719 0 128.001 57.279 128.001 128.001v128.001c0 35.232 28.8 63.999 63.999 63.999h384c70.719 0 128.001 57.279 128.001 128.001v447.999c0 70.719-57.279 128.001-128.001 128.001l-384-0.003c-35.199 0-63.999 28.8-63.999 63.999v128.001c0 70.719-57.279 128.001-128.001 128.001-28.512 0-54.72-9.279-76.161-24.96l-644.799-533.439c-62.721-62.721-62.721-164.481 0-227.199l644.799-533.442z"></path>
</svg>
